# xmcd
#
# Track frame offsets:
#	150
#	16057
#	41122
#	55767
#	73600
#	88582
#	117857
#	134535
#	162752
#	175097
#	208030
#
# Disc length: 3151 seconds
#
# Revision: 1
# Processed by: cddbd v1.4PL0 Copyright (c) Steve Scherf et al.
# Submitted via: audiograbber 1.81.02
#
DISCID=900c4d0b
DTITLE=Smokey Wilson - The Real Deal
DYEAR=1995
DGENRE=Blues
TTITLE0=Son Of A...Blues Player
TTITLE1=House In Hollywood
TTITLE2=Bad Boy
TTITLE3=Sittin' In Jackson
TTITLE4=Feel Like Going Home
TTITLE5=Rat Takin' Your Cheese
TTITLE6=In My Life
TTITLE7=Not Pickin' Your Cotton
TTITLE8=I Wanna Do It To You Baby
TTITLE9=When You Got Somebody
TTITLE10=Can't Make It Without You
EXTD=
EXTT0=
EXTT1=
EXTT2=
EXTT3=
EXTT4=
EXTT5=
EXTT6=
EXTT7=
EXTT8=
EXTT9=
EXTT10=
PLAYORDER=
